<?xml version="1.0" standalone="no"?>
<!DOCTYPE svg PUBLIC "-//W3C//DTD SVG 20010904//EN"
 "http://www.w3.org/TR/2001/REC-SVG-20010904/DTD/svg10.dtd">
<svg version="1.0" xmlns="http://www.w3.org/2000/svg"
 width="259.000000pt" height="340.000000pt" viewBox="0 0 259.000000 340.000000"
 preserveAspectRatio="xMidYMid meet">
<metadata>
Created by potrace 1.16, written by Peter Selinger 2001-2019
</metadata>
<g transform="translate(0.000000,340.000000) scale(0.100000,-0.100000)"
fill="#000000" stroke="none">
<path d="M0 1700 l0 -1700 1295 0 1295 0 0 1700 0 1700 -1295 0 -1295 0 0
-1700z m193 1569 c31 -16 37 -28 37 -71 0 -35 -2 -38 -29 -38 -25 0 -30 5 -33
27 -5 42 -28 41 -28 -1 0 -20 3 -36 8 -36 4 0 24 -16 45 -35 35 -32 37 -37 37
-94 0 -82 -17 -97 -100 -92 -36 3 -60 36 -60 82 0 38 1 39 35 39 33 0 35 -2
35 -36 0 -44 23 -42 28 2 3 24 -4 36 -43 69 -37 32 -47 49 -52 80 -11 87 51
140 120 104z m1870 -20 c9 -12 17 -36 17 -55 0 -32 -2 -34 -35 -34 -32 0 -35
2 -35 31 0 36 -23 35 -28 -1 -3 -18 8 -34 45 -66 47 -41 48 -43 48 -101 0 -77
-13 -93 -76 -93 -61 0 -79 17 -79 76 0 42 1 44 29 44 26 0 30 -4 33 -32 4 -46
28 -49 28 -3 0 32 -7 44 -45 77 -43 38 -45 43 -45 92 0 75 24 99 90 91 20 -2
43 -14 53 -26z m-1721 -121 c2 -87 7 -143 13 -143 6 0 11 56 13 143 l3 142 29
0 30 0 0 -154 c0 -178 -3 -186 -76 -186 -31 0 -50 6 -64 20 -18 18 -20 33 -20
170 l0 150 35 0 34 0 3 -142z m238 -6 c0 -174 -7 -192 -71 -192 -37 0 -39 2
-39 30 0 23 5 30 19 30 27 0 31 18 31 156 l0 124 30 0 30 0 0 -148z m194 1
c10 -82 20 -158 23 -170 5 -21 1 -23 -30 -23 -29 0 -36 4 -39 23 -2 14 -11 23
-25 25 -19 3 -23 -1 -23 -22 0 -22 -4 -26 -31 -26 -31 0 -31 0 -25 43 3 23 13
99 22 170 l17 127 46 0 47 0 18 -147z m132 80 c7 -59 9 -64 15 -38 5 17 11 47
14 68 5 34 8 37 39 37 l33 0 -28 -117 c-16 -65 -29 -142 -29 -170 l0 -53 -35
0 -35 0 0 53 c-1 28 -13 105 -29 170 l-28 117 38 0 37 0 8 -67z m345 65 c0 -2
10 -78 23 -170 l22 -168 -33 0 c-26 0 -34 5 -39 25 -4 16 -13 25 -25 25 -14 0
-19 -7 -19 -25 0 -21 -5 -25 -30 -25 -36 0 -36 -7 -10 186 11 82 20 150 20
152 0 1 20 2 45 2 25 0 45 -1 46 -2z m219 -18 c18 -18 20 -33 20 -152 0 -162
-3 -168 -97 -168 l-63 0 0 170 0 170 60 0 c47 0 64 -4 80 -20z m131 -47 c0
-38 2 -63 4 -58 2 6 11 36 20 68 16 56 17 57 52 57 26 0 34 -4 30 -14 -3 -7
-15 -46 -27 -85 l-21 -72 25 -77 c14 -42 26 -80 26 -85 0 -4 -15 -7 -34 -7
-32 0 -34 2 -54 68 l-20 67 -1 -67 -1 -68 -30 0 -30 0 0 170 0 170 30 0 30 0
1 -67z m279 38 c0 -26 -4 -30 -32 -33 -29 -3 -33 -7 -36 -35 -3 -29 -1 -32 30
-35 29 -3 33 -7 36 -35 3 -32 2 -33 -32 -33 -34 0 -36 -2 -36 -34 0 -32 3 -35
33 -38 28 -3 32 -7 35 -35 l3 -33 -65 0 -66 0 0 170 0 170 65 0 65 0 0 -29z
m384 -103 c10 -73 20 -150 23 -170 6 -38 6 -38 -31 -38 -32 0 -36 3 -36 25 0
18 -5 25 -19 25 -12 0 -21 -9 -25 -25 -5 -20 -13 -25 -37 -25 -27 0 -31 3 -26
23 3 12 13 88 23 170 l18 147 47 0 46 0 17 -132z m193 124 c32 -20 43 -117 20
-163 -8 -14 -11 -34 -7 -45 4 -10 10 -43 14 -71 l7 -53 -30 0 c-31 0 -41 14
-41 60 0 34 -9 60 -21 60 -5 0 -9 -27 -9 -60 l0 -60 -30 0 -30 0 0 170 0 170
58 0 c31 0 62 -4 69 -8z m-602 -807 c117 -31 212 -134 235 -256 7 -34 8 -119
4 -231 l-7 -178 -38 0 -39 0 0 183 c0 255 -22 316 -133 375 l-52 27 -550 0
c-549 0 -550 0 -591 -22 -53 -28 -107 -91 -122 -142 -7 -22 -12 -105 -12 -192
0 -85 -3 -171 -6 -191 -6 -35 -9 -38 -40 -38 -45 0 -46 7 -42 241 3 189 4 195
31 251 38 78 112 142 191 167 57 19 94 20 586 20 443 1 535 -1 585 -14z m-787
-711 c-5 -31 -7 -58 -6 -59 2 -2 35 5 73 15 124 33 253 23 367 -27 51 -23 58
-30 64 -60 10 -52 -4 -146 -23 -160 -9 -7 -42 -23 -72 -35 -48 -20 -75 -23
-191 -23 -116 0 -143 3 -191 23 -93 37 -93 38 -94 138 0 61 4 89 13 91 6 3 12
16 12 29 0 28 39 124 50 124 4 0 3 -25 -2 -56z m195 -856 c11 -254 9 -388 -6
-388 -11 0 -15 38 -20 173 -11 276 -9 367 6 367 11 0 15 -35 20 -152z m302
-123 c28 -13 58 -30 68 -39 18 -14 18 -16 -2 -60 l-20 -46 -118 6 c-65 3 -124
7 -130 10 -9 2 -13 29 -13 87 0 46 2 86 5 89 11 10 160 -23 210 -47z m-360
-55 l0 -93 -51 -18 c-29 -9 -68 -25 -87 -34 -54 -25 -87 -4 -123 81 -27 64
-27 67 -9 80 39 29 229 87 260 80 6 -2 10 -42 10 -96z"/>
</g>
</svg>
